<?xml version="1.0" encoding="UTF-8" standalone="no"?>
<!-- Generator: Gravit.io -->
<svg xmlns="http://www.w3.org/2000/svg" xmlns:xlink="http://www.w3.org/1999/xlink" style="isolation:isolate" viewBox="0 0 256 256" width="256pt" height="256pt"><defs><clipPath id="_clipPath_JmFmGSGbZJ7V9lbJV1VcakYQp1DrhVDL"><rect width="256" height="256"/></clipPath></defs><g clip-path="url(#_clipPath_JmFmGSGbZJ7V9lbJV1VcakYQp1DrhVDL)"><path d="M 20 0 L 236 0 C 247.038 0 256 8.962 256 20 L 256 236 C 256 247.038 247.038 256 236 256 L 20 256 C 8.962 256 0 247.038 0 236 L 0 20 C 0 8.962 8.962 0 20 0 Z" style="stroke:none;fill:#DC3545;stroke-miterlimit:10;"/><path d="M 20 0 L 236 0 C 247.038 0 256 8.962 256 20 L 256 236 C 256 247.038 247.038 256 236 256 L 20 256 C 8.962 256 0 247.038 0 236 L 0 20 C 0 8.962 8.962 0 20 0 Z" style="fill:none;stroke:#000000;stroke-width:4;stroke-linecap:square;stroke-miterlimit:2;"/><mask id="_mask_O7yLbmBhFwaVO9dhlyLk8prFuGUm8Lej"><path d=" M 20 0 L 236 0 C 247.038 0 256 8.962 256 20 L 256 53 L 0 53 L 0 20 L 0 20 C 0 8.962 8.962 0 20 0 Z " fill-rule="evenodd" fill="white" stroke="none"/></mask><path d=" M 20 0 L 236 0 C 247.038 0 256 8.962 256 20 L 256 53 L 0 53 L 0 20 L 0 20 C 0 8.962 8.962 0 20 0 Z " fill-rule="evenodd" fill="rgb(54,69,85)"/><path d=" M 20 0 L 236 0 C 247.038 0 256 8.962 256 20 L 256 53 L 0 53 L 0 20 L 0 20 C 0 8.962 8.962 0 20 0 Z " fill-rule="evenodd" fill="rgb(54,69,85)" mask="url(#_mask_O7yLbmBhFwaVO9dhlyLk8prFuGUm8Lej)" vector-effect="non-scaling-stroke" stroke-width="4" stroke="rgb(209,209,209)" stroke-linejoin="miter" stroke-linecap="square" stroke-miterlimit="3"/><path d=" M 88.187 211.056 L 88.187 211.056 L 67.892 108.279 L 60.564 108.279 L 60.564 108.279 Q 58.45 108.279 58.45 105.635 L 58.45 105.635 L 58.45 96.644 L 58.45 96.644 Q 58.45 94 60.564 94 L 60.564 94 L 95.797 94 L 95.797 94 Q 97.911 94 97.911 96.644 L 97.911 96.644 L 97.911 105.635 L 97.911 105.635 Q 97.911 108.279 95.797 108.279 L 95.797 108.279 L 85.791 108.279 L 100.871 190.254 L 121.447 96.468 L 121.447 96.468 Q 122.01 94 124.124 94 L 124.124 94 L 135.681 94 L 135.681 94 Q 137.795 94 138.359 96.468 L 138.359 96.468 L 158.794 190.782 L 175.001 108.279 L 165.699 108.279 L 165.699 108.279 Q 163.585 108.279 163.585 105.635 L 163.585 105.635 L 163.585 96.644 L 163.585 96.644 Q 163.585 94 165.699 94 L 165.699 94 L 195.436 94 L 195.436 94 Q 197.55 94 197.55 96.644 L 197.55 96.644 L 197.55 105.635 L 197.55 105.635 Q 197.55 108.279 195.436 108.279 L 195.436 108.279 L 187.967 108.279 L 166.263 211.056 L 166.263 211.056 Q 165.699 213.7 163.585 213.7 L 163.585 213.7 L 150.338 213.7 L 150.338 213.7 Q 148.224 213.7 147.66 211.232 L 147.66 211.232 L 127.93 123.44 L 109.045 211.232 L 109.045 211.232 Q 108.481 213.7 106.367 213.7 L 106.367 213.7 L 90.864 213.7 L 90.864 213.7 Q 88.75 213.7 88.187 211.056 Z " fill="rgb(255,255,255)" vector-effect="non-scaling-stroke" stroke-width="2" stroke="rgb(255,255,255)" stroke-linejoin="miter" stroke-linecap="square" stroke-miterlimit="3"/><rect x="2" y="47" width="252" height="6" transform="matrix(1,0,0,1,0,0)" fill="rgb(255,255,255)"/><path d="M 27 17.5 L 228.5 17.5 C 232.363 17.5 235.5 20.637 235.5 24.5 L 235.5 24.5 C 235.5 28.363 232.363 31.5 228.5 31.5 L 27 31.5 C 23.137 31.5 20 28.363 20 24.5 L 20 24.5 C 20 20.637 23.137 17.5 27 17.5 Z" style="stroke:none;fill:#FFFFFF;stroke-miterlimit:10;"/></g></svg>
